<?xml version="1.0" encoding="UTF-8" standalone="no"?>
<!-- Created with Inkscape (http://www.inkscape.org/) -->

<svg
   xmlns:dc="http://purl.org/dc/elements/1.1/"
   xmlns:cc="http://creativecommons.org/ns#"
   xmlns:rdf="http://www.w3.org/1999/02/22-rdf-syntax-ns#"
   xmlns:svg="http://www.w3.org/2000/svg"
   xmlns="http://www.w3.org/2000/svg"
   xmlns:sodipodi="http://sodipodi.sourceforge.net/DTD/sodipodi-0.dtd"
   xmlns:inkscape="http://www.inkscape.org/namespaces/inkscape"
   width="210mm"
   height="297mm"
   viewBox="0 0 744.09448819 1052.3622047"
   id="svg2"
   version="1.1"
   inkscape:version="0.91 r13725"
   sodipodi:docname="cloud.svg">
  <defs
     id="defs4" />
  <sodipodi:namedview
     id="base"
     pagecolor="#ffffff"
     bordercolor="#666666"
     borderopacity="1.0"
     inkscape:pageopacity="0.0"
     inkscape:pageshadow="2"
     inkscape:zoom="0.35"
     inkscape:cx="-39.285714"
     inkscape:cy="520"
     inkscape:document-units="px"
     inkscape:current-layer="layer1"
     showgrid="false"
     inkscape:window-width="1920"
     inkscape:window-height="1068"
     inkscape:window-x="0"
     inkscape:window-y="0"
     inkscape:window-maximized="1" />
  <metadata
     id="metadata7">
    <rdf:RDF>
      <cc:Work
         rdf:about="">
        <dc:format>image/svg+xml</dc:format>
        <dc:type
           rdf:resource="http://purl.org/dc/dcmitype/StillImage" />
        <dc:title></dc:title>
      </cc:Work>
    </rdf:RDF>
  </metadata>
  <g
     inkscape:label="Layer 1"
     inkscape:groupmode="layer"
     id="layer1">
    <path
       inkscape:connector-curvature="0"
       style="fill:#ffffff"
       d="m 541.1,536.05506 c -1.9,0 -3.7,0.2 -5.5,0.5 1.1,-3.5 1.7,-7.2 1.6,-11.1 -0.3,-19.4 -16.2,-34.9 -35.6,-34.6 -16.3,0.2 -29.8,11.5 -33.6,26.6 -2.9,-0.7 -5.9,-1.1 -9,-1 -14.7,0.2 -27.2,9.5 -32.2,22.5 -2.9,-0.7 -5.9,-1.1 -9,-1 -19.4,0.3 -34.9,16.2 -34.6,35.6 0.3,19.4 16.2,34.9 35.6,34.6 l 123.4,-1.8 c 19.4,-0.3 34.9,-16.2 34.6,-35.6 -0.4,-19.5 -16.3,-35 -35.7,-34.7 z"
       id="path4709" />
  </g>
</svg>
