<?xml version="1.0" encoding="UTF-8" standalone="no"?>
<!-- Created with Inkscape (http://www.inkscape.org/) -->

<svg
   xmlns:dc="http://purl.org/dc/elements/1.1/"
   xmlns:cc="http://creativecommons.org/ns#"
   xmlns:rdf="http://www.w3.org/1999/02/22-rdf-syntax-ns#"
   xmlns:svg="http://www.w3.org/2000/svg"
   xmlns="http://www.w3.org/2000/svg"
   xmlns:sodipodi="http://sodipodi.sourceforge.net/DTD/sodipodi-0.dtd"
   xmlns:inkscape="http://www.inkscape.org/namespaces/inkscape"
   width="210mm"
   height="297mm"
   viewBox="0 0 744.09448819 1052.3622047"
   id="svg9583"
   version="1.1"
   inkscape:version="0.91 r13725"
   sodipodi:docname="rbush.svg">
  <defs
     id="defs9585" />
  <sodipodi:namedview
     id="base"
     pagecolor="#ffffff"
     bordercolor="#666666"
     borderopacity="1.0"
     inkscape:pageopacity="0.0"
     inkscape:pageshadow="2"
     inkscape:zoom="0.35"
     inkscape:cx="-39.285714"
     inkscape:cy="520"
     inkscape:document-units="px"
     inkscape:current-layer="layer1"
     showgrid="false"
     inkscape:window-width="1920"
     inkscape:window-height="1068"
     inkscape:window-x="0"
     inkscape:window-y="0"
     inkscape:window-maximized="1" />
  <metadata
     id="metadata9588">
    <rdf:RDF>
      <cc:Work
         rdf:about="">
        <dc:format>image/svg+xml</dc:format>
        <dc:type
           rdf:resource="http://purl.org/dc/dcmitype/StillImage" />
        <dc:title></dc:title>
      </cc:Work>
    </rdf:RDF>
  </metadata>
  <g
     inkscape:label="Layer 1"
     inkscape:groupmode="layer"
     id="layer1">
    <g
       transform="translate(-6210.4642,-4647.5949)"
       id="g4695">
      <path
         style="fill:#009345"
         inkscape:connector-curvature="0"
         d="m 6578.3,5143.9 c 2,0 4,0.2 5.9,0.5 -1.2,-3.7 -1.9,-7.7 -1.9,-11.9 0,-20.9 16.9,-37.8 37.8,-37.8 17.5,0 32.3,11.9 36.6,28.1 3.1,-0.8 6.4,-1.3 9.7,-1.3 15.9,0 29.5,9.8 35.1,23.7 3.1,-0.8 6.4,-1.3 9.7,-1.3 20.9,0 37.8,16.9 37.8,37.8 0,20.9 -16.9,37.8 -37.8,37.8 l -132.9,0 c -20.9,0 -37.8,-16.9 -37.8,-37.8 0,-20.9 16.9,-37.8 37.8,-37.8 z"
         id="path4697" />
      <path
         style="fill:#00a543"
         inkscape:connector-curvature="0"
         d="m 6580.5,5151.6 c 1.9,0 11.3,2.6 13.1,2.9 -1.2,-3.5 -6,-15.8 -6,-19.7 0,-19.5 15.8,-35.2 35.2,-35.2 16.3,0 33.2,14.9 37.2,30 2.9,-0.8 5.9,-1.2 9,-1.2 14.8,0 24.3,5.3 29.6,18.3 2.9,-0.8 5.9,-1.2 9.1,-1.2 19.5,0 35.2,15.8 35.2,35.2 0,19.5 -15.8,35.2 -35.2,35.2 l -123.7,0 c -19.5,0 -35.2,-15.8 -35.2,-35.2 -0.2,-19.4 12.2,-29.1 31.7,-29.1 z"
         id="path4699" />
    </g>
  </g>
</svg>
